<?xml version="1.0" encoding="UTF-8" standalone="no"?>
<!-- Created with Inkscape (http://www.inkscape.org/) -->

<svg
   width="3276"
   height="2457"
   version="1.1"
   viewBox="0 0 3276 2457"
   xml:space="preserve"
   id="svg4"
   sodipodi:docname="loft_etage.svg"
   inkscape:version="1.3.2 (091e20e, 2023-11-25, custom)"
   xmlns:inkscape="http://www.inkscape.org/namespaces/inkscape"
   xmlns:sodipodi="http://sodipodi.sourceforge.net/DTD/sodipodi-0.dtd"
   xmlns:xlink="http://www.w3.org/1999/xlink"
   xmlns="http://www.w3.org/2000/svg"
   xmlns:svg="http://www.w3.org/2000/svg">
   <g
     id="background">
     <!-- 
        Floorplan éteint. 
      -->
     <image
       id="main-background"
       xlink:href="/local/floorplan/loft_etage000png"
       href="/local/floorplan/loft_etage000.png"
       preserveAspectRatio="none"
       style="display:block" /><g
       id="light-overlays">
       <!-- 
          Lampe sous bureau Antre Cha. 
        -->    
       <image
         id="light_overlay.hue_color_light_1"
         xlink:href="/local/floorplan/loft_etage001.png"
         href="/local/floorplan/loft_etage001.png"
         preserveAspectRatio="none" />
        <!-- 
          Lampe au dessus canapé Antre Cha. 
        -->    
       <image
         id="light_overlay.ecran_pc_cha_haut_droite"
         xlink:href="/local/floorplan/loft_etage002.png"
         href="/local/floorplan/loft_etage002.png"
         preserveAspectRatio="none" />
        <!-- 
          TODO: Dressing. 
        -->    
        <image
         id="image2"
         xlink:href="/local/floorplan/loft_etage003.png"
         href="/local/floorplan/loft_etage003.png"
         preserveAspectRatio="none" />
        <!-- 
          TODO: Chambre à coucher. 
        -->          
        <image
         id="image3"
         xlink:href="/local/floorplan/loft_etage004.png"
         href="/local/floorplan/loft_etage004.png"
         preserveAspectRatio="none" />
        <!-- 
          TODO: Escalier. 
        -->          
        <image
         id="image4"
         xlink:href="/local/floorplan/loft_etage005.png"
         href="/local/floorplan/loft_etage005.png"
         preserveAspectRatio="none" />
        <!-- 
          TODO: Salle de bain. 
        -->          
        <image
         id="image5"
         xlink:href="/local/floorplan/loft_etage006.png"
         href="/local/floorplan/loft_etage006.png"
         preserveAspectRatio="none" />
        <!-- 
          TODO: Hall de nuit. 
        -->  
        <image
         id="image6"
         xlink:href="/local/floorplan/loft_etage007.png"
         href="/local/floorplan/loft_etage007.png"
         preserveAspectRatio="none" />
        <!-- 
          TODO: Antre Vanessa. 
        -->
        <image
         id="image7"
         xlink:href="/local/floorplan/loft_etage008.png"
         href="/local/floorplan/loft_etage008.png"
         preserveAspectRatio="none" /></g></g><g
     id="areas"
     style="display:block">
     <!-- 
        Lampe sous bureau Antre Cha. 
      -->  
     <g
       id="area.hue_color_light_1"><path
         style="fill:none;"
         d="m 3130.5605,1565.2802 -11.3464,-7.2204 -0.5157,-46.4168 -0.5157,-227.4427 -367.7249,-246.5252 -650.352,650.352 487.3772,333.6858 -0.5157,70.6568
z"
         id="path1" /><use
         id="light.hue_color_light_1"
         xlink:href="#path1" /></g>
      <!-- 
          Lampe au dessus canapé Antre Cha. 
        -->       
         <g
       id="area.ecran_pc_cha_haut_droite"><path
         style="fill:none;"
         d="m 2750.5868,1037.2883 -376.12,-251.93823 -420.5741,405.24283
v 149.0497
l 298.7441,195.7245
z"
         id="path2" /><use
         id="light.ecran_pc_cha_haut_droite" 
         xlink:href="#path2" /></g>
        <!-- 
          TODO: Dressing
        -->   
               
          <g
       id="id2"><path
         style="fill:none;"
         d="m 1477.3407,1005.6201 289.3778,193.8303 121.6226,-117.4287 104.4824,70.3842 381.461,-367.78521 -525.3294,-352.83315 -107.0352,106.48815 -0.1823,153.16788 -96.6416,92.26541 -0.1824,59.99075
z"
         id="path3" /><use
         id="light.ID_LIGHT2"
         xlink:href="#path3" /></g>
        <!-- 
          TODO: Chambre à coucher
        -->   
               
          <g
       id="id4"><path
         style="fill:none;"
         d="m 1848.681,431.93482 -107.0166,106.75882
v 152.14421
l -96.444,92.83375 -0.2579,60.08407 -167.8743,160.65393 -39.6155,-26.20616 -37.0807,34.52796 0.5471,68.0139 -48.6855,46.1327 -21.8812,-15.4992 -29.2816,28.4134 -216.334,-138.0013 0.1823,-74.94289 -6.0173,-4.19388
v -48.68551
l -369.83954,-250.24184 -46.15901,44.48284 -0.0645,39.77669 -74.25651,-50.64083
V 416.28841
l 35.37448,-34.28043 5.1056,3.8292 347.18052,-336.969333 3.09983,2.188112 0.36468,-14.769759 37.19795,-36.10385729 196.5655,0.18234271
z"
         id="path4" /><use
         id="light.ID_LIGHT3"
         xlink:href="#path4" /></g>
        <!-- 
          TODO: Escalier
        -->   
               
          <g
       id="id5"><path
         style="fill:none;"
         d="m 1968.5719,2457.4327 -356.1153,-238.3219 481.3848,-468.0737 0.3647,-55.7969 5.6526,-6.0173 489.7725,334.7812 -18.4166,18.0519
v 59.9908
l -365.5972,357.3917
z"
         id="path5" /><use
         id="light.ID_LIGHT4"
         xlink:href="#path5" /></g>
        <!-- 
          TODO: Salle de bain
        -->   
               
          <g
       id="id6"><path
         style="fill:none;"
         d="m 1413.5207,2076.8835 427.2953,-416.3197 -29.3974,-19.5983 -0.1289,-17.7931 -23.5953,-16.3749 -347.734,-233.2098 -9.4818,10.2111 -30.2689,-19.8753 -0.096,-204.662 -69.722,-47.8352 -58.3112,57.1186 -0.1289,185.5385 -4.5128,4.5128 -134.8475,-77.8543 -376.51175,366.5415 651.38345,436.3186
z"
         id="path6" /><use
         id="light.ID_LIGHT6"
         xlink:href="#path6" /></g>
        <!-- 
          TODO: Hall de nuit
        -->   
               
          <g
       id="id7"><path
         style="fill:none;"
         d="m 1352.6182,1126.878 48.5032,-45.7681 -0.3647,-67.9226 37.1068,-34.64513 819.5393,550.21913 -164.1996,165.0202 0.3647,57.5291 -480.1996,465.9768 -199.6653,-137.3041 427.0467,-419.0235 -28.9925,-19.693
v -18.052
l -372.0703,-249.8095 -9.3907,10.0289 -29.7218,-19.6931
V 1159.335
Z"
         id="path7" /><use
         id="light.ID_LIGHT7"
         xlink:href="#path7" /></g>  
        <!-- 
          TODO: Antre Vanessa
        -->   
               
          <g
       id="ID8"><path
         style="fill:none;"
         d="M 756.93795,1649.3812 46.382,1169.4985 44.322418,955.30193 167.89737,831.72698
l 6.17874,2.05959 374.84401,-362.48652
v -16.47666
l 16.47666,-16.47665 18.53624,32.95331 -2.05958,188.70925 81.61095,55.60872 0.25746,-46.08315 46.08315,-45.05337 368.4078,250.49672 -0.5148,47.88529 6.1787,3.86172 0.5148,77.49187 15.9619,11.3276 1.2871,-95.25567 2.3171,-4.89151 155.4985,44.02358 -106.5834,102.4642 -2.3171,194.888 5.149,3.3469
z"
         id="path8" /><use
         id="light.ID_LIGHT8"
         xlink:href="#path8" /></g>                             

          </g><g
      stroke="#00adff"
     id="entities" >
        <!-- 
          TV Chambre à coucher. 
          -->
         <path id="media_player.tv_chambre_a_coucher" d="m 1051.0844,855.10202 1.0315,-80.45592 -196.49813,-123.26259 -2.06297,69.62531
z"  style="fill:none; stroke-width:2px; stroke:#0052ff; stroke-linecap:butt; stroke-linejoin:bevel; stroke-opacity:1;"/>
        <!-- 
          TV Antre Cha. 
          -->
        <path id="media_player.tv_antre_cha" d="m 2364.811,1064.2359
v -80.97171
l 8.3808,-7.60721 186.8279,126.09922 0.3868,80.4559 -9.0255,7.7361 -37.7781,-25.9161 -56.216,-25.5292 -38.165,-37.9072
z" style="fill:none; stroke-width:2px; stroke:#0052ff; stroke-linecap:butt; stroke-linejoin:bevel; stroke-opacity:1;"/>
<!-- 
  PC Cha. 
-->  
<path id="binary_sensor.10_191_107_165" d="m 2309.4975,1783.1817 -52.6058,-33.7812 -1.0315,-52.6058 86.387,-80.4559 50.5428,35.3284 0.5158,50.285
z" style="fill:none; stroke-width:2px; stroke:#0052ff; stroke-linecap:butt; stroke-linejoin:bevel; stroke-opacity:1;"/>
<!-- 
  PC Cha (other IP). 
-->  
<path id="binary_sensor.10_191_107_159" d="m 2309.4975,1783.1817 -52.6058,-33.7812 -1.0315,-52.6058 86.387,-80.4559 50.5428,35.3284 0.5158,50.285
z" style="fill:none; stroke-width:2px; stroke:#0052ff; stroke-linecap:butt; stroke-linejoin:bevel; stroke-opacity:1;"/>
<!-- 
  Ouverture Porte Terasse. 
-->  
<path id="binary_sensor.sonoff_a48007e0ab" d="m 649.83629,407.69491 -0.25788,-9.79912 11.60422,-11.60422 0.51575,11.34635
z" style="fill:none; stroke-width:2px; stroke:#0052ff; stroke-linecap:butt; stroke-linejoin:bevel; stroke-opacity:1;"/>
<!-- 
  Température Antre Cha. 
-->  
<text xml:space="preserve" style="transform: rotate(312deg);" 
id="sensor.sonoff_a4800849a0_temperature" ><tspan id="tspan148-9" x="275" y="3180" style="font-style:normal;font-variant:normal;font-weight:bold;font-stretch:normal;font-size:48px;font-family:Arial;">Gang C</tspan></text>
<!-- 
  Humidité Antre Cha. 
-->  
<text xml:space="preserve" style="transform: rotate(312deg);" 
id="sensor.sonoff_a4800849a0_humidity" ><tspan id="tspan148-9" x="275" y="3220" style="font-style:normal;font-variant:normal;font-weight:bold;font-stretch:normal;font-size:48px;font-family:Arial;">Gang C</tspan></text>
<!-- 
  Température Antre Van. 
-->  
<text xml:space="preserve" style="transform: rotate(312deg);" 
id="sensor.sonoff_a4800849a3_temperature" ><tspan id="tspan148-9" x="-290" y="950" style="font-style:normal;font-variant:normal;font-weight:bold;font-stretch:normal;font-size:48px;font-family:Arial;">Gang C</tspan></text>
<!-- 
  Humidité Antre Van. 
-->  
<text xml:space="preserve" style="transform: rotate(312deg);" 
id="sensor.sonoff_a4800849a3_humidity" ><tspan id="tspan148-9" x="-290" y="990" style="font-style:normal;font-variant:normal;font-weight:bold;font-stretch:normal;font-size:48px;font-family:Arial;">Gang C</tspan></text>
<!-- 
  Température Salle de bain. 
-->  
<text xml:space="preserve" style="transform: rotate(312deg);" 
id="sensor.sonoff_a480085bef_temperature" ><tspan id="tspan148-9" x="-610" y="2300" style="font-style:normal;font-variant:normal;font-weight:bold;font-stretch:normal;font-size:48px;font-family:Arial;">Gang C</tspan></text>
<!-- 
  Humidité Salle de bain. 
-->  
<text xml:space="preserve" style="transform: rotate(312deg);" 
id="sensor.sonoff_a480085bef_humidity" ><tspan id="tspan148-9" x="-610" y="2340" style="font-style:normal;font-variant:normal;font-weight:bold;font-stretch:normal;font-size:48px;font-family:Arial;">Gang C</tspan></text>
<!-- 
  Température Chambre à coucher. 
-->  
<text xml:space="preserve" style="transform: rotate(312deg);" 
id="sensor.sonoff_a480085bf0_temperature" ><tspan id="tspan148-9" x="420" y="1000" style="font-style:normal;font-variant:normal;font-weight:bold;font-stretch:normal;font-size:48px;font-family:Arial;">Gang C</tspan></text>
<!-- 
  Humidité Chambre à coucher. 
-->  
<text xml:space="preserve" style="transform: rotate(312deg);" 
id="sensor.sonoff_a480085bf0_humidity" ><tspan id="tspan148-9" x="420" y="1040" style="font-style:normal;font-variant:normal;font-weight:bold;font-stretch:normal;font-size:48px;font-family:Arial;">Gang C</tspan></text>

</g>
  <!--g id="cameras" >
  <image
       width="286.66666"
       height="274.66666"
       preserveAspectRatio="none"
       style="display:block;"
       xlink:href="/local/floorplan/cadenas-off.png"
       href="/local/floorplan/cadenas-off.png"
       id="path_camera_1"
       x="500"
       y="910.02179"/>
  <use
         id="camera.cam_hall_high"
         xlink:href="#path_camera_1" style="background: linear-gradient(to bottom right, transparent, pink);"/>     
         </g-->
</svg>
